<svg data-v-423bf9ae="" xmlns="http://www.w3.org/2000/svg" viewBox="0 0 184.33231859625187 60" class="font"><!----><!----><!----><g data-v-423bf9ae="" id="487c8128-5c8b-456e-991e-1b0b52e5e6c2" fill="white" transform="matrix(5.934717742604922,0,0,5.934717742604922,-7.655785329872998,-26.172104339321642)"><path d="M7.11 14.35L7.11 14.08L4.35 14.08L4.35 4.84L7.11 4.84L7.11 4.58L1.29 4.58L1.29 4.84L4.05 4.84L4.05 14.08L1.29 14.08L1.29 14.35ZM9.77 14.35L13.19 14.35C14.78 14.35 15.62 13.34 15.62 11.80C15.62 10.47 15.02 9.58 13.82 9.35L13.82 9.32C14.67 9.04 15.18 8.33 15.18 7.06C15.18 5.43 14.32 4.58 12.88 4.58L9.77 4.58ZM10.08 14.07L10.08 9.53L13.19 9.53C14.63 9.53 15.29 10.49 15.29 11.51L15.29 12.10C15.29 13.12 14.63 14.07 13.19 14.07ZM10.08 9.25L10.08 4.86L12.88 4.86C14.22 4.86 14.84 5.75 14.84 6.76L14.84 7.35C14.84 8.36 14.22 9.25 12.88 9.25ZM21.35 14.52C22.67 14.52 23.63 13.75 24.05 12.54L23.79 12.45C23.41 13.55 22.54 14.24 21.35 14.24C19.32 14.24 18.24 12.78 18.24 9.91L18.24 9.02C18.24 6.15 19.32 4.69 21.35 4.69C22.54 4.69 23.41 5.38 23.79 6.48L24.05 6.38C23.63 5.18 22.67 4.41 21.35 4.41C19.14 4.41 17.91 5.88 17.91 9.46C17.91 13.05 19.14 14.52 21.35 14.52ZM26.80 14.35L29.39 10.95L29.41 10.95L31.99 14.35L32.35 14.35L29.58 10.71L32.31 7.13L31.96 7.13L29.41 10.47L29.39 10.47L26.85 7.13L26.49 7.13L29.22 10.72L26.45 14.35Z"></path></g><!----><!----></svg>