<svg class="iconAbove" data-v-423bf9ae="" viewBox="0 0 163 163" xmlns="http://www.w3.org/2000/svg">

  <g data-v-423bf9ae="" fill="#CECFD0" id="ab3d48a2-9b72-4d49-8628-b37d7469cc42" stroke="none" transform="matrix(1.001691750823267,0,0,1.001691750823267,42.89436938873562,-5.008715900157576)">
    <path d="M82.232 78.796c0 2.229-1.879 4.036-4.197 4.036s-4.197-1.807-4.197-4.036V44.538c0-2.229 1.879-4.036 4.197-4.036s4.197 1.807 4.197 4.036v34.258zM25.669 44.538c0-2.229-1.879-4.036-4.197-4.036s-4.197 1.807-4.197 4.036v34.257c0 2.229 1.879 4.036 4.197 4.036s4.197-1.807 4.197-4.036V44.538zm18.854 0c0-2.229-1.879-4.036-4.197-4.036s-4.197 1.807-4.197 4.036v34.257c0 2.229 1.879 4.036 4.197 4.036s4.197-1.807 4.197-4.036V44.538zm18.854 0c0-2.229-1.879-4.036-4.197-4.036s-4.197 1.807-4.197 4.036v34.257c0 2.229 1.879 4.036 4.197 4.036s4.197-1.807 4.197-4.036V44.538zm26.684-20.871L50.021 5.152 9.981 23.667h80.08zm3.092 8.54a3.784 3.784 0 0 0-3.778-3.79H10.667a3.784 3.784 0 0 0-3.778 3.79 3.784 3.784 0 0 0 3.778 3.79h78.708a3.785 3.785 0 0 0 3.778-3.79zm1.889 58.837a3.95 3.95 0 0 0-3.943-3.956H8.943A3.951 3.951 0 0 0 5 91.044 3.95 3.95 0 0 0 8.943 95h82.155a3.95 3.95 0 0 0 3.944-3.956z"/>
  </g>

</svg>
